<mxfile host="app.diagrams.net" modified="2024-05-29T14:27:36.851Z" agent="Mozilla/5.0 (Windows NT 10.0; Win64; x64) AppleWebKit/537.36 (KHTML, like Gecko) Chrome/121.0.0.0 Safari/537.36" etag="NeBBec5I-UTQM1ufk4zk" version="24.4.9" type="device">
  <diagram name="PÃ¡gina-1" id="KFOIwD2mZpmDqyar0QLI">
    <mxGraphModel dx="1687" dy="908" grid="1" gridSize="10" guides="1" tooltips="1" connect="1" arrows="1" fold="1" page="1" pageScale="1" pageWidth="827" pageHeight="1169" math="0" shadow="0">
      <root>
        <mxCell id="0" />
        <mxCell id="1" parent="0" />
        <mxCell id="eQaayvCSHgDUhC-DyR5L-1" value="" style="rounded=1;whiteSpace=wrap;html=1;" vertex="1" parent="1">
          <mxGeometry x="150" y="10" width="450" height="800" as="geometry" />
        </mxCell>
        <mxCell id="eQaayvCSHgDUhC-DyR5L-2" value="" style="rounded=0;whiteSpace=wrap;html=1;" vertex="1" parent="1">
          <mxGeometry x="210" y="140" width="290" height="40" as="geometry" />
        </mxCell>
        <mxCell id="eQaayvCSHgDUhC-DyR5L-4" value="BUSCAR CLIENTE" style="text;strokeColor=none;fillColor=none;html=1;fontSize=24;fontStyle=1;verticalAlign=middle;align=center;" vertex="1" parent="1">
          <mxGeometry x="325" y="60" width="100" height="40" as="geometry" />
        </mxCell>
        <mxCell id="eQaayvCSHgDUhC-DyR5L-5" value="" style="rounded=0;whiteSpace=wrap;html=1;" vertex="1" parent="1">
          <mxGeometry x="500" y="140" width="50" height="40" as="geometry" />
        </mxCell>
        <mxCell id="eQaayvCSHgDUhC-DyR5L-6" value="" style="sketch=0;outlineConnect=0;fontColor=#232F3E;gradientColor=none;fillColor=#01A88D;strokeColor=none;dashed=0;verticalLabelPosition=bottom;verticalAlign=top;align=center;html=1;fontSize=12;fontStyle=0;aspect=fixed;pointerEvents=1;shape=mxgraph.aws4.sagemaker_geospatial_ml;" vertex="1" parent="1">
          <mxGeometry x="510" y="145" width="30" height="30" as="geometry" />
        </mxCell>
        <mxCell id="eQaayvCSHgDUhC-DyR5L-8" value="" style="shape=table;startSize=0;container=1;collapsible=0;childLayout=tableLayout;fontSize=16;" vertex="1" parent="1">
          <mxGeometry x="190" y="210" width="370" height="530" as="geometry" />
        </mxCell>
        <mxCell id="eQaayvCSHgDUhC-DyR5L-9" value="" style="shape=tableRow;horizontal=0;startSize=0;swimlaneHead=0;swimlaneBody=0;strokeColor=inherit;top=0;left=0;bottom=0;right=0;collapsible=0;dropTarget=0;fillColor=none;points=[[0,0.5],[1,0.5]];portConstraint=eastwest;fontSize=16;" vertex="1" parent="eQaayvCSHgDUhC-DyR5L-8">
          <mxGeometry width="370" height="38" as="geometry" />
        </mxCell>
        <mxCell id="eQaayvCSHgDUhC-DyR5L-10" value="" style="shape=partialRectangle;html=1;whiteSpace=wrap;connectable=0;strokeColor=inherit;overflow=hidden;fillColor=none;top=0;left=0;bottom=0;right=0;pointerEvents=1;fontSize=16;" vertex="1" parent="eQaayvCSHgDUhC-DyR5L-9">
          <mxGeometry width="120" height="38" as="geometry">
            <mxRectangle width="120" height="38" as="alternateBounds" />
          </mxGeometry>
        </mxCell>
        <mxCell id="eQaayvCSHgDUhC-DyR5L-11" value="" style="shape=partialRectangle;html=1;whiteSpace=wrap;connectable=0;strokeColor=inherit;overflow=hidden;fillColor=none;top=0;left=0;bottom=0;right=0;pointerEvents=1;fontSize=16;" vertex="1" parent="eQaayvCSHgDUhC-DyR5L-9">
          <mxGeometry x="120" width="127" height="38" as="geometry">
            <mxRectangle width="127" height="38" as="alternateBounds" />
          </mxGeometry>
        </mxCell>
        <mxCell id="eQaayvCSHgDUhC-DyR5L-12" value="" style="shape=partialRectangle;html=1;whiteSpace=wrap;connectable=0;strokeColor=inherit;overflow=hidden;fillColor=none;top=0;left=0;bottom=0;right=0;pointerEvents=1;fontSize=16;" vertex="1" parent="eQaayvCSHgDUhC-DyR5L-9">
          <mxGeometry x="247" width="123" height="38" as="geometry">
            <mxRectangle width="123" height="38" as="alternateBounds" />
          </mxGeometry>
        </mxCell>
        <mxCell id="eQaayvCSHgDUhC-DyR5L-13" value="" style="shape=tableRow;horizontal=0;startSize=0;swimlaneHead=0;swimlaneBody=0;strokeColor=inherit;top=0;left=0;bottom=0;right=0;collapsible=0;dropTarget=0;fillColor=none;points=[[0,0.5],[1,0.5]];portConstraint=eastwest;fontSize=16;" vertex="1" parent="eQaayvCSHgDUhC-DyR5L-8">
          <mxGeometry y="38" width="370" height="42" as="geometry" />
        </mxCell>
        <mxCell id="eQaayvCSHgDUhC-DyR5L-14" value="" style="shape=partialRectangle;html=1;whiteSpace=wrap;connectable=0;strokeColor=inherit;overflow=hidden;fillColor=none;top=0;left=0;bottom=0;right=0;pointerEvents=1;fontSize=16;" vertex="1" parent="eQaayvCSHgDUhC-DyR5L-13">
          <mxGeometry width="120" height="42" as="geometry">
            <mxRectangle width="120" height="42" as="alternateBounds" />
          </mxGeometry>
        </mxCell>
        <mxCell id="eQaayvCSHgDUhC-DyR5L-15" value="" style="shape=partialRectangle;html=1;whiteSpace=wrap;connectable=0;strokeColor=inherit;overflow=hidden;fillColor=none;top=0;left=0;bottom=0;right=0;pointerEvents=1;fontSize=16;" vertex="1" parent="eQaayvCSHgDUhC-DyR5L-13">
          <mxGeometry x="120" width="127" height="42" as="geometry">
            <mxRectangle width="127" height="42" as="alternateBounds" />
          </mxGeometry>
        </mxCell>
        <mxCell id="eQaayvCSHgDUhC-DyR5L-16" value="" style="shape=partialRectangle;html=1;whiteSpace=wrap;connectable=0;strokeColor=inherit;overflow=hidden;fillColor=none;top=0;left=0;bottom=0;right=0;pointerEvents=1;fontSize=16;" vertex="1" parent="eQaayvCSHgDUhC-DyR5L-13">
          <mxGeometry x="247" width="123" height="42" as="geometry">
            <mxRectangle width="123" height="42" as="alternateBounds" />
          </mxGeometry>
        </mxCell>
        <mxCell id="eQaayvCSHgDUhC-DyR5L-17" value="" style="shape=tableRow;horizontal=0;startSize=0;swimlaneHead=0;swimlaneBody=0;strokeColor=inherit;top=0;left=0;bottom=0;right=0;collapsible=0;dropTarget=0;fillColor=none;points=[[0,0.5],[1,0.5]];portConstraint=eastwest;fontSize=16;" vertex="1" parent="eQaayvCSHgDUhC-DyR5L-8">
          <mxGeometry y="80" width="370" height="46" as="geometry" />
        </mxCell>
        <mxCell id="eQaayvCSHgDUhC-DyR5L-18" value="" style="shape=partialRectangle;html=1;whiteSpace=wrap;connectable=0;strokeColor=inherit;overflow=hidden;fillColor=none;top=0;left=0;bottom=0;right=0;pointerEvents=1;fontSize=16;" vertex="1" parent="eQaayvCSHgDUhC-DyR5L-17">
          <mxGeometry width="120" height="46" as="geometry">
            <mxRectangle width="120" height="46" as="alternateBounds" />
          </mxGeometry>
        </mxCell>
        <mxCell id="eQaayvCSHgDUhC-DyR5L-19" value="" style="shape=partialRectangle;html=1;whiteSpace=wrap;connectable=0;strokeColor=inherit;overflow=hidden;fillColor=none;top=0;left=0;bottom=0;right=0;pointerEvents=1;fontSize=16;" vertex="1" parent="eQaayvCSHgDUhC-DyR5L-17">
          <mxGeometry x="120" width="127" height="46" as="geometry">
            <mxRectangle width="127" height="46" as="alternateBounds" />
          </mxGeometry>
        </mxCell>
        <mxCell id="eQaayvCSHgDUhC-DyR5L-20" value="" style="shape=partialRectangle;html=1;whiteSpace=wrap;connectable=0;strokeColor=inherit;overflow=hidden;fillColor=none;top=0;left=0;bottom=0;right=0;pointerEvents=1;fontSize=16;" vertex="1" parent="eQaayvCSHgDUhC-DyR5L-17">
          <mxGeometry x="247" width="123" height="46" as="geometry">
            <mxRectangle width="123" height="46" as="alternateBounds" />
          </mxGeometry>
        </mxCell>
        <mxCell id="eQaayvCSHgDUhC-DyR5L-21" value="" style="shape=tableRow;horizontal=0;startSize=0;swimlaneHead=0;swimlaneBody=0;strokeColor=inherit;top=0;left=0;bottom=0;right=0;collapsible=0;dropTarget=0;fillColor=none;points=[[0,0.5],[1,0.5]];portConstraint=eastwest;fontSize=16;" vertex="1" parent="eQaayvCSHgDUhC-DyR5L-8">
          <mxGeometry y="126" width="370" height="46" as="geometry" />
        </mxCell>
        <mxCell id="eQaayvCSHgDUhC-DyR5L-22" value="" style="shape=partialRectangle;html=1;whiteSpace=wrap;connectable=0;strokeColor=inherit;overflow=hidden;fillColor=none;top=0;left=0;bottom=0;right=0;pointerEvents=1;fontSize=16;" vertex="1" parent="eQaayvCSHgDUhC-DyR5L-21">
          <mxGeometry width="120" height="46" as="geometry">
            <mxRectangle width="120" height="46" as="alternateBounds" />
          </mxGeometry>
        </mxCell>
        <mxCell id="eQaayvCSHgDUhC-DyR5L-23" value="" style="shape=partialRectangle;html=1;whiteSpace=wrap;connectable=0;strokeColor=inherit;overflow=hidden;fillColor=none;top=0;left=0;bottom=0;right=0;pointerEvents=1;fontSize=16;" vertex="1" parent="eQaayvCSHgDUhC-DyR5L-21">
          <mxGeometry x="120" width="127" height="46" as="geometry">
            <mxRectangle width="127" height="46" as="alternateBounds" />
          </mxGeometry>
        </mxCell>
        <mxCell id="eQaayvCSHgDUhC-DyR5L-24" value="" style="shape=partialRectangle;html=1;whiteSpace=wrap;connectable=0;strokeColor=inherit;overflow=hidden;fillColor=none;top=0;left=0;bottom=0;right=0;pointerEvents=1;fontSize=16;" vertex="1" parent="eQaayvCSHgDUhC-DyR5L-21">
          <mxGeometry x="247" width="123" height="46" as="geometry">
            <mxRectangle width="123" height="46" as="alternateBounds" />
          </mxGeometry>
        </mxCell>
        <mxCell id="eQaayvCSHgDUhC-DyR5L-25" value="" style="shape=tableRow;horizontal=0;startSize=0;swimlaneHead=0;swimlaneBody=0;strokeColor=inherit;top=0;left=0;bottom=0;right=0;collapsible=0;dropTarget=0;fillColor=none;points=[[0,0.5],[1,0.5]];portConstraint=eastwest;fontSize=16;" vertex="1" parent="eQaayvCSHgDUhC-DyR5L-8">
          <mxGeometry y="172" width="370" height="45" as="geometry" />
        </mxCell>
        <mxCell id="eQaayvCSHgDUhC-DyR5L-26" value="" style="shape=partialRectangle;html=1;whiteSpace=wrap;connectable=0;strokeColor=inherit;overflow=hidden;fillColor=none;top=0;left=0;bottom=0;right=0;pointerEvents=1;fontSize=16;" vertex="1" parent="eQaayvCSHgDUhC-DyR5L-25">
          <mxGeometry width="120" height="45" as="geometry">
            <mxRectangle width="120" height="45" as="alternateBounds" />
          </mxGeometry>
        </mxCell>
        <mxCell id="eQaayvCSHgDUhC-DyR5L-27" value="" style="shape=partialRectangle;html=1;whiteSpace=wrap;connectable=0;strokeColor=inherit;overflow=hidden;fillColor=none;top=0;left=0;bottom=0;right=0;pointerEvents=1;fontSize=16;" vertex="1" parent="eQaayvCSHgDUhC-DyR5L-25">
          <mxGeometry x="120" width="127" height="45" as="geometry">
            <mxRectangle width="127" height="45" as="alternateBounds" />
          </mxGeometry>
        </mxCell>
        <mxCell id="eQaayvCSHgDUhC-DyR5L-28" value="" style="shape=partialRectangle;html=1;whiteSpace=wrap;connectable=0;strokeColor=inherit;overflow=hidden;fillColor=none;top=0;left=0;bottom=0;right=0;pointerEvents=1;fontSize=16;" vertex="1" parent="eQaayvCSHgDUhC-DyR5L-25">
          <mxGeometry x="247" width="123" height="45" as="geometry">
            <mxRectangle width="123" height="45" as="alternateBounds" />
          </mxGeometry>
        </mxCell>
        <mxCell id="eQaayvCSHgDUhC-DyR5L-29" value="" style="shape=tableRow;horizontal=0;startSize=0;swimlaneHead=0;swimlaneBody=0;strokeColor=inherit;top=0;left=0;bottom=0;right=0;collapsible=0;dropTarget=0;fillColor=none;points=[[0,0.5],[1,0.5]];portConstraint=eastwest;fontSize=16;" vertex="1" parent="eQaayvCSHgDUhC-DyR5L-8">
          <mxGeometry y="217" width="370" height="46" as="geometry" />
        </mxCell>
        <mxCell id="eQaayvCSHgDUhC-DyR5L-30" value="" style="shape=partialRectangle;html=1;whiteSpace=wrap;connectable=0;strokeColor=inherit;overflow=hidden;fillColor=none;top=0;left=0;bottom=0;right=0;pointerEvents=1;fontSize=16;" vertex="1" parent="eQaayvCSHgDUhC-DyR5L-29">
          <mxGeometry width="120" height="46" as="geometry">
            <mxRectangle width="120" height="46" as="alternateBounds" />
          </mxGeometry>
        </mxCell>
        <mxCell id="eQaayvCSHgDUhC-DyR5L-31" value="" style="shape=partialRectangle;html=1;whiteSpace=wrap;connectable=0;strokeColor=inherit;overflow=hidden;fillColor=none;top=0;left=0;bottom=0;right=0;pointerEvents=1;fontSize=16;" vertex="1" parent="eQaayvCSHgDUhC-DyR5L-29">
          <mxGeometry x="120" width="127" height="46" as="geometry">
            <mxRectangle width="127" height="46" as="alternateBounds" />
          </mxGeometry>
        </mxCell>
        <mxCell id="eQaayvCSHgDUhC-DyR5L-32" value="" style="shape=partialRectangle;html=1;whiteSpace=wrap;connectable=0;strokeColor=inherit;overflow=hidden;fillColor=none;top=0;left=0;bottom=0;right=0;pointerEvents=1;fontSize=16;" vertex="1" parent="eQaayvCSHgDUhC-DyR5L-29">
          <mxGeometry x="247" width="123" height="46" as="geometry">
            <mxRectangle width="123" height="46" as="alternateBounds" />
          </mxGeometry>
        </mxCell>
        <mxCell id="eQaayvCSHgDUhC-DyR5L-33" value="" style="shape=tableRow;horizontal=0;startSize=0;swimlaneHead=0;swimlaneBody=0;strokeColor=inherit;top=0;left=0;bottom=0;right=0;collapsible=0;dropTarget=0;fillColor=none;points=[[0,0.5],[1,0.5]];portConstraint=eastwest;fontSize=16;" vertex="1" parent="eQaayvCSHgDUhC-DyR5L-8">
          <mxGeometry y="263" width="370" height="46" as="geometry" />
        </mxCell>
        <mxCell id="eQaayvCSHgDUhC-DyR5L-34" value="" style="shape=partialRectangle;html=1;whiteSpace=wrap;connectable=0;strokeColor=inherit;overflow=hidden;fillColor=none;top=0;left=0;bottom=0;right=0;pointerEvents=1;fontSize=16;" vertex="1" parent="eQaayvCSHgDUhC-DyR5L-33">
          <mxGeometry width="120" height="46" as="geometry">
            <mxRectangle width="120" height="46" as="alternateBounds" />
          </mxGeometry>
        </mxCell>
        <mxCell id="eQaayvCSHgDUhC-DyR5L-35" value="" style="shape=partialRectangle;html=1;whiteSpace=wrap;connectable=0;strokeColor=inherit;overflow=hidden;fillColor=none;top=0;left=0;bottom=0;right=0;pointerEvents=1;fontSize=16;" vertex="1" parent="eQaayvCSHgDUhC-DyR5L-33">
          <mxGeometry x="120" width="127" height="46" as="geometry">
            <mxRectangle width="127" height="46" as="alternateBounds" />
          </mxGeometry>
        </mxCell>
        <mxCell id="eQaayvCSHgDUhC-DyR5L-36" value="" style="shape=partialRectangle;html=1;whiteSpace=wrap;connectable=0;strokeColor=inherit;overflow=hidden;fillColor=none;top=0;left=0;bottom=0;right=0;pointerEvents=1;fontSize=16;" vertex="1" parent="eQaayvCSHgDUhC-DyR5L-33">
          <mxGeometry x="247" width="123" height="46" as="geometry">
            <mxRectangle width="123" height="46" as="alternateBounds" />
          </mxGeometry>
        </mxCell>
        <mxCell id="eQaayvCSHgDUhC-DyR5L-37" value="" style="shape=tableRow;horizontal=0;startSize=0;swimlaneHead=0;swimlaneBody=0;strokeColor=inherit;top=0;left=0;bottom=0;right=0;collapsible=0;dropTarget=0;fillColor=none;points=[[0,0.5],[1,0.5]];portConstraint=eastwest;fontSize=16;" vertex="1" parent="eQaayvCSHgDUhC-DyR5L-8">
          <mxGeometry y="309" width="370" height="46" as="geometry" />
        </mxCell>
        <mxCell id="eQaayvCSHgDUhC-DyR5L-38" value="" style="shape=partialRectangle;html=1;whiteSpace=wrap;connectable=0;strokeColor=inherit;overflow=hidden;fillColor=none;top=0;left=0;bottom=0;right=0;pointerEvents=1;fontSize=16;" vertex="1" parent="eQaayvCSHgDUhC-DyR5L-37">
          <mxGeometry width="120" height="46" as="geometry">
            <mxRectangle width="120" height="46" as="alternateBounds" />
          </mxGeometry>
        </mxCell>
        <mxCell id="eQaayvCSHgDUhC-DyR5L-39" value="" style="shape=partialRectangle;html=1;whiteSpace=wrap;connectable=0;strokeColor=inherit;overflow=hidden;fillColor=none;top=0;left=0;bottom=0;right=0;pointerEvents=1;fontSize=16;" vertex="1" parent="eQaayvCSHgDUhC-DyR5L-37">
          <mxGeometry x="120" width="127" height="46" as="geometry">
            <mxRectangle width="127" height="46" as="alternateBounds" />
          </mxGeometry>
        </mxCell>
        <mxCell id="eQaayvCSHgDUhC-DyR5L-40" value="" style="shape=partialRectangle;html=1;whiteSpace=wrap;connectable=0;strokeColor=inherit;overflow=hidden;fillColor=none;top=0;left=0;bottom=0;right=0;pointerEvents=1;fontSize=16;" vertex="1" parent="eQaayvCSHgDUhC-DyR5L-37">
          <mxGeometry x="247" width="123" height="46" as="geometry">
            <mxRectangle width="123" height="46" as="alternateBounds" />
          </mxGeometry>
        </mxCell>
        <mxCell id="eQaayvCSHgDUhC-DyR5L-41" value="" style="shape=tableRow;horizontal=0;startSize=0;swimlaneHead=0;swimlaneBody=0;strokeColor=inherit;top=0;left=0;bottom=0;right=0;collapsible=0;dropTarget=0;fillColor=none;points=[[0,0.5],[1,0.5]];portConstraint=eastwest;fontSize=16;" vertex="1" parent="eQaayvCSHgDUhC-DyR5L-8">
          <mxGeometry y="355" width="370" height="46" as="geometry" />
        </mxCell>
        <mxCell id="eQaayvCSHgDUhC-DyR5L-42" value="" style="shape=partialRectangle;html=1;whiteSpace=wrap;connectable=0;strokeColor=inherit;overflow=hidden;fillColor=none;top=0;left=0;bottom=0;right=0;pointerEvents=1;fontSize=16;" vertex="1" parent="eQaayvCSHgDUhC-DyR5L-41">
          <mxGeometry width="120" height="46" as="geometry">
            <mxRectangle width="120" height="46" as="alternateBounds" />
          </mxGeometry>
        </mxCell>
        <mxCell id="eQaayvCSHgDUhC-DyR5L-43" value="" style="shape=partialRectangle;html=1;whiteSpace=wrap;connectable=0;strokeColor=inherit;overflow=hidden;fillColor=none;top=0;left=0;bottom=0;right=0;pointerEvents=1;fontSize=16;" vertex="1" parent="eQaayvCSHgDUhC-DyR5L-41">
          <mxGeometry x="120" width="127" height="46" as="geometry">
            <mxRectangle width="127" height="46" as="alternateBounds" />
          </mxGeometry>
        </mxCell>
        <mxCell id="eQaayvCSHgDUhC-DyR5L-44" value="" style="shape=partialRectangle;html=1;whiteSpace=wrap;connectable=0;strokeColor=inherit;overflow=hidden;fillColor=none;top=0;left=0;bottom=0;right=0;pointerEvents=1;fontSize=16;" vertex="1" parent="eQaayvCSHgDUhC-DyR5L-41">
          <mxGeometry x="247" width="123" height="46" as="geometry">
            <mxRectangle width="123" height="46" as="alternateBounds" />
          </mxGeometry>
        </mxCell>
        <mxCell id="eQaayvCSHgDUhC-DyR5L-45" value="" style="shape=tableRow;horizontal=0;startSize=0;swimlaneHead=0;swimlaneBody=0;strokeColor=inherit;top=0;left=0;bottom=0;right=0;collapsible=0;dropTarget=0;fillColor=none;points=[[0,0.5],[1,0.5]];portConstraint=eastwest;fontSize=16;" vertex="1" parent="eQaayvCSHgDUhC-DyR5L-8">
          <mxGeometry y="401" width="370" height="45" as="geometry" />
        </mxCell>
        <mxCell id="eQaayvCSHgDUhC-DyR5L-46" value="" style="shape=partialRectangle;html=1;whiteSpace=wrap;connectable=0;strokeColor=inherit;overflow=hidden;fillColor=none;top=0;left=0;bottom=0;right=0;pointerEvents=1;fontSize=16;" vertex="1" parent="eQaayvCSHgDUhC-DyR5L-45">
          <mxGeometry width="120" height="45" as="geometry">
            <mxRectangle width="120" height="45" as="alternateBounds" />
          </mxGeometry>
        </mxCell>
        <mxCell id="eQaayvCSHgDUhC-DyR5L-47" value="" style="shape=partialRectangle;html=1;whiteSpace=wrap;connectable=0;strokeColor=inherit;overflow=hidden;fillColor=none;top=0;left=0;bottom=0;right=0;pointerEvents=1;fontSize=16;" vertex="1" parent="eQaayvCSHgDUhC-DyR5L-45">
          <mxGeometry x="120" width="127" height="45" as="geometry">
            <mxRectangle width="127" height="45" as="alternateBounds" />
          </mxGeometry>
        </mxCell>
        <mxCell id="eQaayvCSHgDUhC-DyR5L-48" value="" style="shape=partialRectangle;html=1;whiteSpace=wrap;connectable=0;strokeColor=inherit;overflow=hidden;fillColor=none;top=0;left=0;bottom=0;right=0;pointerEvents=1;fontSize=16;" vertex="1" parent="eQaayvCSHgDUhC-DyR5L-45">
          <mxGeometry x="247" width="123" height="45" as="geometry">
            <mxRectangle width="123" height="45" as="alternateBounds" />
          </mxGeometry>
        </mxCell>
        <mxCell id="eQaayvCSHgDUhC-DyR5L-49" value="" style="shape=tableRow;horizontal=0;startSize=0;swimlaneHead=0;swimlaneBody=0;strokeColor=inherit;top=0;left=0;bottom=0;right=0;collapsible=0;dropTarget=0;fillColor=none;points=[[0,0.5],[1,0.5]];portConstraint=eastwest;fontSize=16;" vertex="1" parent="eQaayvCSHgDUhC-DyR5L-8">
          <mxGeometry y="446" width="370" height="46" as="geometry" />
        </mxCell>
        <mxCell id="eQaayvCSHgDUhC-DyR5L-50" value="" style="shape=partialRectangle;html=1;whiteSpace=wrap;connectable=0;strokeColor=inherit;overflow=hidden;fillColor=none;top=0;left=0;bottom=0;right=0;pointerEvents=1;fontSize=16;" vertex="1" parent="eQaayvCSHgDUhC-DyR5L-49">
          <mxGeometry width="120" height="46" as="geometry">
            <mxRectangle width="120" height="46" as="alternateBounds" />
          </mxGeometry>
        </mxCell>
        <mxCell id="eQaayvCSHgDUhC-DyR5L-51" value="" style="shape=partialRectangle;html=1;whiteSpace=wrap;connectable=0;strokeColor=inherit;overflow=hidden;fillColor=none;top=0;left=0;bottom=0;right=0;pointerEvents=1;fontSize=16;" vertex="1" parent="eQaayvCSHgDUhC-DyR5L-49">
          <mxGeometry x="120" width="127" height="46" as="geometry">
            <mxRectangle width="127" height="46" as="alternateBounds" />
          </mxGeometry>
        </mxCell>
        <mxCell id="eQaayvCSHgDUhC-DyR5L-52" value="" style="shape=partialRectangle;html=1;whiteSpace=wrap;connectable=0;strokeColor=inherit;overflow=hidden;fillColor=none;top=0;left=0;bottom=0;right=0;pointerEvents=1;fontSize=16;" vertex="1" parent="eQaayvCSHgDUhC-DyR5L-49">
          <mxGeometry x="247" width="123" height="46" as="geometry">
            <mxRectangle width="123" height="46" as="alternateBounds" />
          </mxGeometry>
        </mxCell>
        <mxCell id="eQaayvCSHgDUhC-DyR5L-53" value="" style="shape=tableRow;horizontal=0;startSize=0;swimlaneHead=0;swimlaneBody=0;strokeColor=inherit;top=0;left=0;bottom=0;right=0;collapsible=0;dropTarget=0;fillColor=none;points=[[0,0.5],[1,0.5]];portConstraint=eastwest;fontSize=16;" vertex="1" parent="eQaayvCSHgDUhC-DyR5L-8">
          <mxGeometry y="492" width="370" height="38" as="geometry" />
        </mxCell>
        <mxCell id="eQaayvCSHgDUhC-DyR5L-54" value="" style="shape=partialRectangle;html=1;whiteSpace=wrap;connectable=0;strokeColor=inherit;overflow=hidden;fillColor=none;top=0;left=0;bottom=0;right=0;pointerEvents=1;fontSize=16;" vertex="1" parent="eQaayvCSHgDUhC-DyR5L-53">
          <mxGeometry width="120" height="38" as="geometry">
            <mxRectangle width="120" height="38" as="alternateBounds" />
          </mxGeometry>
        </mxCell>
        <mxCell id="eQaayvCSHgDUhC-DyR5L-55" value="" style="shape=partialRectangle;html=1;whiteSpace=wrap;connectable=0;strokeColor=inherit;overflow=hidden;fillColor=none;top=0;left=0;bottom=0;right=0;pointerEvents=1;fontSize=16;" vertex="1" parent="eQaayvCSHgDUhC-DyR5L-53">
          <mxGeometry x="120" width="127" height="38" as="geometry">
            <mxRectangle width="127" height="38" as="alternateBounds" />
          </mxGeometry>
        </mxCell>
        <mxCell id="eQaayvCSHgDUhC-DyR5L-56" value="" style="shape=partialRectangle;html=1;whiteSpace=wrap;connectable=0;strokeColor=inherit;overflow=hidden;fillColor=none;top=0;left=0;bottom=0;right=0;pointerEvents=1;fontSize=16;" vertex="1" parent="eQaayvCSHgDUhC-DyR5L-53">
          <mxGeometry x="247" width="123" height="38" as="geometry">
            <mxRectangle width="123" height="38" as="alternateBounds" />
          </mxGeometry>
        </mxCell>
      </root>
    </mxGraphModel>
  </diagram>
</mxfile>
